<svg width="1751" height="665" xmlns="http://www.w3.org/2000/svg" xmlns:xlink="http://www.w3.org/1999/xlink" xml:space="preserve" overflow="hidden"><g transform="translate(-1356 -925)"><g><g><g><g><path d="M634.772 439.596C634.772 360.986 698.501 297.257 777.11 297.257 855.72 297.257 919.449 360.986 919.449 439.596 919.449 518.205 855.72 581.934 777.11 581.934 698.501 581.934 634.772 518.205 634.772 439.596Z" stroke="#000000" stroke-width="6.58973" stroke-linecap="butt" stroke-linejoin="miter" stroke-miterlimit="8" stroke-opacity="1" fill="#C8E9C0" fill-rule="evenodd" fill-opacity="1" transform="matrix(1.00133 0 0 1 832.599 780.073)"/><path d="M766.129 310.874C694.069 310.874 635.653 369.289 635.653 441.35 635.653 513.41 694.069 571.827 766.129 571.827 838.186 571.827 896.606 513.41 896.606 441.35 896.606 369.289 838.186 310.874 766.129 310.874ZM766.129 205.24C897.146 205.24 1003.36 311.452 1003.36 442.471 1003.36 499.791 983.03 552.363 949.185 593.372L948.794 593.803 970.691 615.66 1007.57 578.645 1045.54 708.583 915.473 671.072 950.088 636.336 928.668 614.952 917.03 625.531C876.021 659.372 823.449 679.702 766.129 679.702 635.11 679.702 528.899 573.491 528.899 442.471 528.899 311.452 635.11 205.24 766.129 205.24Z" stroke="#000000" stroke-width="6.58973" stroke-linecap="butt" stroke-linejoin="miter" stroke-miterlimit="8" stroke-opacity="1" fill="#C8E9C0" fill-rule="evenodd" fill-opacity="1" transform="matrix(1.00133 0 0 1 832.599 780.073)"/><path d="M934.531 274.656C1009.81 349.923 1023.93 463.197 976.898 552.722L968.563 566.831 966.899 565.788C936.921 549.534 898.048 542.051 859.171 534.571L859.07 534.671C849.423 483.113 839.779 431.551 809.039 400.783 778.3 370.015 726.465 360.041 674.634 350.064L674.53 350.166C667.298 311.496 660.062 272.826 643.93 242.928L642.478 240.603 656.457 232.34C745.976 185.286 859.253 199.39 934.531 274.656Z" stroke="#000000" stroke-width="6.58973" stroke-linecap="butt" stroke-linejoin="miter" stroke-miterlimit="8" stroke-opacity="1" fill="#BFDEE9" fill-rule="evenodd" fill-opacity="1" transform="matrix(1.00133 0 0 1 832.599 780.073)"/><path d="M598.08 610.499C522.799 535.232 508.677 421.958 555.713 332.431L564.048 318.323 565.713 319.366C595.69 335.62 634.567 343.102 673.441 350.584L673.541 350.482C683.189 402.041 692.832 453.603 723.572 484.371 754.311 515.139 806.146 525.114 857.981 535.088L858.082 534.988C865.317 573.656 872.549 612.328 888.684 642.227L890.133 644.552 876.154 652.812C786.636 699.867 673.361 685.766 598.08 610.499Z" stroke="#000000" stroke-width="6.58973" stroke-linecap="butt" stroke-linejoin="miter" stroke-miterlimit="8" stroke-opacity="1" fill="#FCBDA1" fill-rule="evenodd" fill-opacity="1" transform="matrix(1.00133 0 0 1 832.599 780.073)"/><path d="M0 0 71.1692 60.6775" stroke="#000000" stroke-width="6.58973" stroke-linecap="butt" stroke-linejoin="miter" stroke-miterlimit="8" stroke-opacity="1" fill="none" fill-rule="evenodd" transform="matrix(1.00133 0 0 -1 1571.15 1259.5)"/><path d="M0 0 69.5625 59.3077" stroke="#000000" stroke-width="6.58973" stroke-linecap="butt" stroke-linejoin="miter" stroke-miterlimit="8" stroke-opacity="1" fill="none" fill-rule="evenodd" transform="matrix(1.00133 0 0 -1 1588.79 1276.82)"/><path d="M0 0 69.5625 59.3077" stroke="#000000" stroke-width="6.58973" stroke-linecap="butt" stroke-linejoin="miter" stroke-miterlimit="8" stroke-opacity="1" fill="none" fill-rule="evenodd" transform="matrix(1.00133 0 0 -1 1552.08 1239.44)"/><path d="M0 0 47.4461 40.4518" stroke="#000000" stroke-width="6.58973" stroke-linecap="butt" stroke-linejoin="miter" stroke-miterlimit="8" stroke-opacity="1" fill="none" fill-rule="evenodd" transform="matrix(1.00133 0 0 -1 1615.06 1287.44)"/><path d="M0 0 47.4461 40.4518" stroke="#000000" stroke-width="6.58973" stroke-linecap="butt" stroke-linejoin="miter" stroke-miterlimit="8" stroke-opacity="1" fill="none" fill-rule="evenodd" transform="matrix(1.00133 0 0 -1 1541.28 1212.67)"/><path d="M0 0 23.7231 20.226" stroke="#000000" stroke-width="6.58973" stroke-linecap="butt" stroke-linejoin="miter" stroke-miterlimit="8" stroke-opacity="1" fill="none" fill-rule="evenodd" transform="matrix(1.00133 0 0 -1 1644.21 1293.45)"/><path d="M0 0 23.7231 20.226" stroke="#000000" stroke-width="6.58973" stroke-linecap="butt" stroke-linejoin="miter" stroke-miterlimit="8" stroke-opacity="1" fill="none" fill-rule="evenodd" transform="matrix(1.00133 0 0 -1 1538.04 1184.9)"/><path d="M906.351 277.899C953.599 317.338 980.913 375.712 980.913 437.259" stroke="#000000" stroke-width="6.58973" stroke-linecap="butt" stroke-linejoin="miter" stroke-miterlimit="8" stroke-opacity="1" fill="none" fill-rule="evenodd" transform="matrix(1.00133 0 0 1 832.599 780.073)"/><path d="M571.057 483.864C561.77 443.553 564.739 401.387 579.583 362.773" stroke="#000000" stroke-width="6.58973" stroke-linecap="butt" stroke-linejoin="miter" stroke-miterlimit="8" stroke-opacity="1" fill="none" fill-rule="evenodd" transform="matrix(1.00133 0 0 1 832.599 780.073)"/><path d="M594.967 543.435C586.553 529.294 579.846 514.205 574.993 498.479" stroke="#000000" stroke-width="6.58973" stroke-linecap="butt" stroke-linejoin="miter" stroke-miterlimit="8" stroke-opacity="1" fill="none" fill-rule="evenodd" transform="matrix(1.00133 0 0 1 832.599 780.073)"/><path d="M621.354 578.645C614.194 570.95 607.631 562.719 601.714 554.027" stroke="#000000" stroke-width="6.58973" stroke-linecap="butt" stroke-linejoin="miter" stroke-miterlimit="8" stroke-opacity="1" fill="none" fill-rule="evenodd" transform="matrix(1.00133 0 0 1 832.599 780.073)"/><path d="M648.941 603.432C642.816 598.849 636.95 593.929 631.368 588.699" stroke="#000000" stroke-width="6.58973" stroke-linecap="butt" stroke-linejoin="miter" stroke-miterlimit="8" stroke-opacity="1" fill="none" fill-rule="evenodd" transform="matrix(1.00133 0 0 1 832.599 780.073)"/><path d="M840.278 240.773C859.649 247.373 877.937 256.801 894.55 268.751" stroke="#000000" stroke-width="6.58973" stroke-linecap="butt" stroke-linejoin="miter" stroke-miterlimit="8" stroke-opacity="1" fill="none" fill-rule="evenodd" transform="matrix(1.00133 0 0 1 832.599 780.073)"/><path d="M792.836 230.96C804.108 232.024 815.272 234.007 826.221 236.891" stroke="#000000" stroke-width="6.58973" stroke-linecap="butt" stroke-linejoin="miter" stroke-miterlimit="8" stroke-opacity="1" fill="none" fill-rule="evenodd" transform="matrix(1.00133 0 0 1 832.599 780.073)"/><path d="M583.386 434.959C583.681 412.512 587.955 390.291 596.01 369.34" stroke="#000000" stroke-width="6.58973" stroke-linecap="butt" stroke-linejoin="miter" stroke-miterlimit="8" stroke-opacity="1" fill="none" fill-rule="evenodd" transform="matrix(1.00133 0 0 1 832.599 780.073)"/><path d="M634.599 567.513C603.95 534.952 585.784 492.613 583.304 447.964" stroke="#000000" stroke-width="6.58973" stroke-linecap="butt" stroke-linejoin="miter" stroke-miterlimit="8" stroke-opacity="1" fill="none" fill-rule="evenodd" transform="matrix(1.00133 0 0 1 832.599 780.073)"/><path d="M864.188 270.715C880.223 279.435 894.913 290.423 907.81 303.338" stroke="#000000" stroke-width="6.58973" stroke-linecap="butt" stroke-linejoin="miter" stroke-miterlimit="8" stroke-opacity="1" fill="none" fill-rule="evenodd" transform="matrix(1.00133 0 0 1 832.599 780.073)"/><path d="M921.835 319.487C954.523 360.688 968.645 413.608 960.838 465.619" stroke="#000000" stroke-width="6.58973" stroke-linecap="butt" stroke-linejoin="miter" stroke-miterlimit="8" stroke-opacity="1" fill="none" fill-rule="evenodd" transform="matrix(1.00133 0 0 1 832.599 780.073)"/><path d="M869.616 295.948C889.076 309.239 905.6 326.389 918.158 346.332" stroke="#000000" stroke-width="6.58973" stroke-linecap="butt" stroke-linejoin="miter" stroke-miterlimit="8" stroke-opacity="1" fill="none" fill-rule="evenodd" transform="matrix(1.00133 0 0 1 832.599 780.073)"/><path d="M924.272 356.808C933.69 374.598 939.908 393.904 942.647 413.845" stroke="#000000" stroke-width="6.58973" stroke-linecap="butt" stroke-linejoin="miter" stroke-miterlimit="8" stroke-opacity="1" fill="none" fill-rule="evenodd" transform="matrix(1.00133 0 0 1 832.599 780.073)"/><path d="M943.255 426.796C944.38 446.616 942.065 466.482 936.411 485.514" stroke="#000000" stroke-width="6.58973" stroke-linecap="butt" stroke-linejoin="miter" stroke-miterlimit="8" stroke-opacity="1" fill="none" fill-rule="evenodd" transform="matrix(1.00133 0 0 1 832.599 780.073)"/><path d="M620.218 517.702C605.812 490.162 599.137 459.232 600.902 428.201" stroke="#000000" stroke-width="6.58973" stroke-linecap="butt" stroke-linejoin="miter" stroke-miterlimit="8" stroke-opacity="1" fill="none" fill-rule="evenodd" transform="matrix(1.00133 0 0 1 832.599 780.073)"/><path d="M856.903 627.429C830.254 639.089 801.452 645.02 772.362 644.833" stroke="#000000" stroke-width="6.58973" stroke-linecap="butt" stroke-linejoin="miter" stroke-miterlimit="8" stroke-opacity="1" fill="none" fill-rule="evenodd" transform="matrix(1.00133 0 0 1 832.599 780.073)"/><path d="M827.526 619.161C805.56 625.779 782.574 628.356 759.688 626.771" stroke="#000000" stroke-width="6.58973" stroke-linecap="butt" stroke-linejoin="miter" stroke-miterlimit="8" stroke-opacity="1" fill="none" fill-rule="evenodd" transform="matrix(1.00133 0 0 1 832.599 780.073)"/><path d="M802.005 607.925C793.727 609.324 785.359 610.114 776.967 610.29" stroke="#000000" stroke-width="6.58973" stroke-linecap="butt" stroke-linejoin="miter" stroke-miterlimit="8" stroke-opacity="1" fill="none" fill-rule="evenodd" transform="matrix(1.00133 0 0 1 832.599 780.073)"/></g></g></g><text fill="#000000" fill-opacity="1" font-family="Montserrat Light,Montserrat Light_MSFontService,sans-serif" font-style="normal" font-variant="normal" font-weight="300" font-stretch="normal" font-size="147" text-anchor="start" direction="ltr" writing-mode="lr-tb" unicode-bidi="normal" text-decoration="none" transform="matrix(1 0 0 1 1938.94 1111)">QUANTUM</text><text fill="#000000" fill-opacity="1" font-family="Montserrat Light,Montserrat Light_MSFontService,sans-serif" font-style="normal" font-variant="normal" font-weight="300" font-stretch="normal" font-size="147" text-anchor="start" direction="ltr" writing-mode="lr-tb" unicode-bidi="normal" text-decoration="none" transform="matrix(1 0 0 1 2735.86 1111)"> </text><text fill="#000000" fill-opacity="1" font-family="Montserrat Light,Montserrat Light_MSFontService,sans-serif" font-style="normal" font-variant="normal" font-weight="300" font-stretch="normal" font-size="147" text-anchor="start" direction="ltr" writing-mode="lr-tb" unicode-bidi="normal" text-decoration="none" transform="matrix(1 0 0 1 1938.94 1287)">BIOSCIENCES</text><text fill="#000000" fill-opacity="1" font-family="Montserrat Light,Montserrat Light_MSFontService,sans-serif" font-style="normal" font-variant="normal" font-weight="300" font-stretch="normal" font-size="147" text-anchor="start" direction="ltr" writing-mode="lr-tb" unicode-bidi="normal" text-decoration="none" transform="matrix(1 0 0 1 2961.02 1287)"> </text><text fill="#000000" fill-opacity="1" font-family="Montserrat Light,Montserrat Light_MSFontService,sans-serif" font-style="normal" font-variant="normal" font-weight="300" font-stretch="normal" font-size="147" text-anchor="start" direction="ltr" writing-mode="lr-tb" unicode-bidi="normal" text-decoration="none" transform="matrix(1 0 0 1 1938.94 1463)">CONSORTIUM</text><text fill="#000000" fill-opacity="1" font-family="Montserrat Light,Montserrat Light_MSFontService,sans-serif" font-style="normal" font-variant="normal" font-weight="300" font-stretch="normal" font-size="147" text-anchor="start" direction="ltr" writing-mode="lr-tb" unicode-bidi="normal" text-decoration="none" transform="matrix(1 0 0 1 2979.35 1463)"> </text></g></g></svg>